<?xml version="1.0" standalone="no"?>
<!DOCTYPE svg PUBLIC "-//W3C//DTD SVG 20010904//EN"
 "http://www.w3.org/TR/2001/REC-SVG-20010904/DTD/svg10.dtd">
<svg version="1.0" xmlns="http://www.w3.org/2000/svg"
 width="600.000000pt" height="400.000000pt" viewBox="0 0 600.000000 400.000000"
 preserveAspectRatio="xMidYMid meet">

<g transform="translate(0.000000,400.000000) scale(0.100000,-0.100000)" stroke="none">
<path d="M2837 3529 c-631 -73 -1143 -511 -1315 -1124 -39 -138 -47 -206 -47
-405 0 -199 8 -267 47 -405 70 -252 197 -475 374 -659 574 -596 1500 -635
2127 -89 218 190 389 464 466 745 69 254 69 562 0 816 -128 466 -485 859 -939
1031 -63 25 -240 74 -245 69 -2 -2 -6 -19 -10 -39 l-7 -35 59 -13 c229 -51
484 -191 664 -363 82 -80 189 -206 189 -222 -1 -6 -37 -33 -80 -61 -86 -54
-96 -66 -80 -96 16 -29 38 -23 120 31 41 27 80 50 87 50 17 0 117 -210 151
-320 33 -105 58 -240 67 -370 6 -84 -10 -299 -23 -312 -4 -3 -49 3 -100 14
-99 20 -122 16 -122 -22 0 -28 19 -37 115 -56 50 -9 92 -18 93 -20 11 -8 -67
-224 -114 -319 -131 -266 -361 -505 -613 -638 l-88 -47 -33 82 c-41 98 -62
123 -90 108 -28 -15 -25 -36 15 -131 20 -45 32 -86 28 -89 -14 -13 -140 -51
-235 -71 -114 -24 -355 -35 -456 -21 -41 6 -76 13 -79 15 -4 5 50 292 64 340
5 17 13 18 94 12 119 -9 119 -9 119 117 0 70 4 100 13 102 6 2 47 9 90 16 136
20 251 68 371 154 l74 54 68 -69 c44 -44 76 -69 91 -69 22 0 76 56 143 146
l30 42 -32 21 c-31 19 -34 20 -46 3 -6 -9 -31 -41 -54 -70 l-42 -53 -71 71
c-41 41 -79 70 -91 70 -11 0 -31 -12 -45 -26 -29 -31 -166 -124 -183 -124 -6
0 -17 12 -23 28 -6 15 -18 44 -27 64 l-16 36 47 28 c54 31 133 101 133 118 0
6 -33 45 -74 86 l-74 74 28 41 c27 39 53 104 64 158 l6 27 98 0 c63 0 102 4
110 12 16 16 15 100 -3 177 -9 35 -14 65 -13 66 2 2 39 17 83 35 96 40 105 46
105 76 0 38 -31 38 -123 -1 -47 -19 -89 -35 -94 -35 -4 0 -18 17 -30 38 -11
20 -38 56 -58 80 l-38 43 -28 -27 -28 -27 39 -46 c66 -79 119 -204 120 -283 0
-28 0 -28 -70 -28 -68 0 -70 1 -76 28 -10 48 -37 116 -59 152 -57 90 -176 171
-271 186 l-44 6 0 75 0 75 48 -7 c26 -4 73 -16 106 -27 71 -25 71 -24 120 87
19 44 38 81 43 82 13 5 118 -65 176 -115 27 -23 53 -42 60 -42 6 0 44 33 84
72 l73 73 25 -30 c128 -153 213 -348 233 -537 l8 -78 -96 0 c-62 0 -102 -4
-112 -12 -11 -9 -17 -38 -22 -93 -5 -74 -28 -180 -40 -192 -3 -3 -47 11 -97
32 -97 41 -121 40 -127 -4 -4 -26 10 -33 408 -197 102 -42 189 -79 193 -84 15
-14 -77 -167 -172 -284 -50 -62 -204 -206 -221 -206 -3 0 -30 37 -60 81 -30
45 -60 83 -66 86 -7 3 -44 -14 -83 -36 -79 -46 -192 -94 -266 -112 -78 -18
-80 -22 -60 -120 9 -46 18 -91 21 -101 5 -17 4 -17 -148 -34 -58 -6 -58 -6
-58 -40 l0 -34 68 1 c97 1 203 21 216 41 7 12 5 43 -9 112 -10 53 -17 97 -14
99 2 2 31 11 64 21 33 10 102 38 153 62 52 25 95 44 96 42 2 -2 27 -38 56 -80
29 -42 60 -80 68 -83 17 -6 57 20 156 102 164 136 384 466 349 522 -8 12 -197
97 -386 173 -4 2 1 39 12 83 11 44 23 101 26 128 l6 47 73 0 72 0 -7 -70 c-4
-39 -10 -79 -14 -89 -4 -15 1 -20 31 -25 20 -4 38 -6 40 -3 7 7 24 110 24 148
l0 39 104 0 c81 0 106 3 116 15 15 18 7 154 -15 274 -15 76 -62 229 -74 244
-7 6 -71 -10 -71 -18 0 -2 13 -44 30 -92 29 -87 60 -247 60 -310 l0 -33 -75 0
-75 0 0 39 c0 56 -26 187 -54 268 -63 186 -184 364 -327 483 l-58 48 41 59
c22 32 41 59 43 61 1 1 38 -29 82 -67 l80 -70 27 28 27 28 -63 55 c-129 112
-255 191 -398 248 -62 25 -222 72 -227 66 -2 -2 -6 -19 -9 -37 l-6 -34 99 -28
c81 -23 259 -100 311 -135 10 -7 0 -28 -42 -89 -31 -45 -56 -89 -56 -100 0
-11 26 -37 65 -66 36 -27 65 -51 65 -55 0 -4 -22 -29 -49 -56 l-48 -48 -69 51
c-86 62 -180 110 -204 104 -11 -3 -27 -27 -41 -61 -12 -32 -30 -73 -40 -94
l-18 -36 -44 13 c-24 7 -74 16 -110 20 -94 10 -97 6 -97 -120 l0 -102 -40 -7
c-110 -17 -243 -117 -292 -218 -67 -137 -58 -295 23 -416 16 -24 29 -46 29
-50 -1 -4 -30 -38 -65 -77 -36 -38 -65 -78 -65 -87 0 -20 65 -78 125 -109 25
-13 45 -27 45 -30 0 -3 -11 -32 -24 -65 -16 -39 -30 -59 -41 -58 -29 3 -127
69 -196 132 -148 137 -249 356 -249 541 0 65 -12 71 -131 71 l-92 0 6 73 c15
182 101 385 230 542 l25 30 71 -68 c58 -56 76 -68 98 -65 51 6 41 35 -39 115
l-73 74 25 20 c84 68 146 110 208 140 74 35 81 46 58 87 l-12 23 -85 -43
c-300 -155 -505 -429 -574 -770 -8 -42 -15 -95 -15 -118 l0 -40 -75 0 -75 0 0
33 c0 59 39 254 66 329 127 356 404 637 752 762 83 30 242 63 322 68 l55 3 3
-72 3 -71 -53 -6 c-138 -17 -131 -14 -123 -55 4 -20 8 -37 8 -37 1 -1 25 2 52
6 28 5 65 9 83 9 l33 1 -3 -72 -3 -71 -100 -18 c-121 -20 -199 -48 -203 -72
-2 -10 13 -59 33 -110 21 -53 32 -93 26 -95 -66 -22 -216 -161 -262 -242 -12
-22 -27 -40 -31 -40 -5 0 -48 16 -95 35 -92 39 -123 39 -123 1 0 -30 8 -35
105 -76 44 -19 81 -34 83 -35 1 -1 -5 -33 -14 -71 -27 -114 -8 -327 35 -392
13 -21 75 13 66 36 -24 59 -38 138 -38 217 0 205 117 395 302 493 34 19 65 40
68 48 3 8 -11 55 -31 105 -20 50 -36 93 -34 94 9 8 143 35 203 40 38 4 73 9
77 11 5 3 8 53 8 111 l0 106 66 -7 c84 -9 180 -31 246 -57 28 -11 52 -18 53
-17 1 2 10 17 19 35 l16 32 -58 21 c-67 26 -204 57 -284 65 l-57 6 -3 107 -3
107 -115 -1 c-228 -2 -487 -94 -695 -248 -261 -194 -448 -489 -512 -813 -21
-109 -24 -355 -4 -463 13 -74 73 -272 90 -298 13 -21 75 13 66 36 -48 122 -95
323 -95 409 l0 33 184 0 c182 0 184 0 190 -22 3 -13 6 -35 6 -49 0 -44 39
-181 70 -247 74 -158 192 -290 343 -382 l85 -52 -40 -101 c-22 -56 -52 -132
-66 -169 -15 -38 -31 -68 -37 -68 -36 1 -232 128 -330 214 l-50 44 -30 -25
-29 -26 44 -39 c140 -124 372 -263 428 -256 23 3 36 31 144 303 66 165 121
301 122 302 1 2 37 -4 80 -12 115 -22 116 -22 116 24 l0 38 -60 6 c-33 4 -85
16 -117 27 -58 20 -163 79 -163 91 0 4 29 39 65 79 36 40 65 78 65 85 0 7 -14
28 -31 46 -17 19 -43 59 -57 89 -23 46 -27 68 -27 140 0 71 4 94 26 140 69
145 230 224 380 186 155 -40 259 -170 259 -326 0 -157 -105 -287 -262 -326
-67 -17 -68 -17 -68 -50 0 -32 2 -34 33 -34 49 0 126 25 178 59 l47 29 51 -52
c60 -61 60 -59 -44 -117 -89 -49 -87 -39 -32 -166 l36 -82 -55 -16 c-30 -9
-99 -21 -152 -28 l-97 -12 -3 -108 -3 -107 -27 0 c-15 0 -56 5 -91 10 -43 8
-67 8 -75 0 -7 -5 -30 -100 -52 -211 -24 -127 -43 -203 -52 -206 -24 -10 -213
58 -331 118 -136 69 -243 147 -360 262 -111 109 -170 186 -150 197 7 5 77 52
154 104 l140 95 20 -27 c58 -80 240 -242 272 -242 5 0 16 13 26 29 l17 29 -69
50 c-169 126 -309 334 -360 534 -18 71 -20 73 -47 69 -16 -1 -33 -5 -37 -8
-19 -11 29 -165 89 -285 l44 -87 -151 -101 c-120 -81 -153 -99 -164 -90 -25
21 -114 212 -149 320 -135 419 -74 882 167 1248 252 384 670 629 1123 659 l94
6 0 39 0 38 -47 -1 c-27 -1 -79 -5 -116 -10z"/>
</g>
</svg>
